<mxfile host="app.diagrams.net" modified="2024-06-26T12:55:12.587Z" agent="Mozilla/5.0 (X11; Linux x86_64) AppleWebKit/537.36 (KHTML, like Gecko) Chrome/125.0.0.0 Safari/537.36" version="24.6.3" etag="OEDaO-94aga7UquLoF9h" type="github">
  <diagram name="Page-1" id="g9RmbBDJPy3zefdKJ2lH">
    <mxGraphModel>
      <root>
        <mxCell id="0" />
        <mxCell id="1" parent="0" />
      </root>
    </mxGraphModel>
  </diagram>
</mxfile>
